<?xml version="1.0" encoding="UTF-8"?>
<svg width="180px" height="40px" viewBox="0 0 180 40" version="1.1" xmlns="http://www.w3.org/2000/svg" xmlns:xlink="http://www.w3.org/1999/xlink">
    <!-- Generator: Sketch 49 (51002) - http://www.bohemiancoding.com/sketch -->
    <title>logo_iberia</title>
    <desc>Created with Sketch.</desc>
    <defs>
        <linearGradient x1="-1.22775264%" y1="3.63240533%" x2="99.1578257%" y2="102.498351%" id="linearGradient-1">
            <stop stop-color="#ED7417" offset="0%"></stop>
            <stop stop-color="#FACD08" offset="85%"></stop>
            <stop stop-color="#FACD08" offset="100%"></stop>
        </linearGradient>
    </defs>
    <g id="menu_definitivo" stroke="none" stroke-width="1" fill="none" fill-rule="evenodd">
        <g id="01_nav_contenidos_reposo_hover_activo_1280" transform="translate(-441.000000, -146.000000)">
            <g id="00_01_menu-copy" transform="translate(0.000000, 124.000000)">
                <g id="Group-5">
                    <g id="menu_principal">
                        <g id="logo_iberia" transform="translate(441.000000, 22.000000)">
                            <path d="M111.589034,22 C109.985765,19.8493125 108.224674,17.1618007 106.289477,13.7193445 L106.289477,13.7193445 C104.337998,10.2542852 102.578159,6.70333396 101.487184,4.00226031 L101.487184,4.00226031 L107.996709,4.00226031 C108.395021,5.12789603 108.879759,6.26709361 109.393307,7.33622151 L109.393307,7.33622151 L120.088867,7.33622151 C120.606172,6.27161424 121.064607,5.19909587 121.489223,4.00226031 L121.489223,4.00226031 L128,4.00226031 C126.841387,6.70898474 125.156702,10.2362027 123.210233,13.6978715 L123.210233,13.6978715 C121.270026,17.1448484 119.531481,19.8447919 117.896897,22 L117.896897,22 L111.589034,22 L111.589034,22 Z M114.736703,17.7472217 C116.079441,15.5773215 117.284398,13.3769071 118.625884,10.6679224 L118.625884,10.6679224 L110.857543,10.6679224 C112.166462,13.3237898 113.372671,15.523074 114.736703,17.7472217 L114.736703,17.7472217 Z M64.9251258,22 C64.606977,19.2390281 64.4441449,15.9514033 64.4441449,13.0028254 L64.4441449,13.0028254 C64.4441449,10.0768506 64.6057244,7.13279337 64.9288834,4.00226031 L64.9288834,4.00226031 L71.0989656,4.00226031 C70.8334241,6.33151253 70.7031585,8.32736862 70.6154797,10.6837446 L70.6154797,10.6837446 L76.8243911,10.6837446 C77.2765632,10.2328122 78.0180753,9.37502354 78.7971641,8.26407986 L78.7971641,8.26407986 C79.7040133,6.97796195 80.4041912,5.7110567 81.1832799,4.00226031 L81.1832799,4.00226031 L88.0810961,4.00226031 C87.1754994,5.5607459 86.1947494,6.96779054 84.7204931,8.84385007 L84.7204931,8.84385007 C83.8775241,9.91410812 83.0808996,10.7843285 82.3506605,11.4364287 L82.3506605,11.4364287 C84.9384375,12.2569222 86.5392019,14.2279149 86.5392019,16.6238463 L86.5392019,16.6238463 C86.5392019,17.9935958 85.9943408,19.2898851 85.0474097,20.1849689 L85.0474097,20.1849689 C83.7009139,21.4405726 81.6104009,22 78.2635759,22 L78.2635759,22 L64.9251258,22 L64.9251258,22 Z M70.8008577,18.6287436 L76.2281753,18.6287436 C78.2259993,18.6287436 79.1979814,18.4083632 79.8192483,17.8116406 L79.8192483,17.8116406 C80.1887518,17.4771143 80.4092014,16.9425504 80.4092014,16.3797325 L80.4092014,16.3797325 C80.4092014,15.4089282 79.8543198,14.5500094 78.8810852,14.012055 L78.8810852,14.012055 L70.611722,14.012055 C70.6154797,15.342249 70.6781074,16.8577887 70.8008577,18.6287436 L70.8008577,18.6287436 Z M40.2635852,22 C39.9692349,19.1474854 39.7788467,15.9197589 39.7788467,12.9915238 L39.7788467,12.9915238 C39.7788467,10.0768506 39.994286,6.87624788 40.2648377,4 L40.2648377,4 L59.2999046,4 C59.2009529,5.20022603 59.1232945,6.29534752 59.0531515,7.58937653 L59.0531515,7.58937653 L46.0954778,7.58937653 C45.9952734,8.93765304 45.9489289,10.1796949 45.9464238,11.3912225 L45.9464238,11.3912225 L57.899549,11.3912225 L57.899549,14.7862121 L45.9464238,14.7862121 C45.9464238,15.7728386 45.9840004,17.2149181 46.0942252,18.4117536 L46.0942252,18.4117536 L59.0368682,18.4117536 C59.1007485,19.6741383 59.1784069,20.7342249 59.3049149,22 L59.3049149,22 L40.2635852,22 L40.2635852,22 Z M13.0969361,22 C12.7800399,19.3113581 12.6134502,15.9231494 12.6134502,13.0028254 L12.6134502,13.0028254 C12.6134502,10.0768506 12.7612516,7.21303447 13.0969361,4.00226031 L13.0969361,4.00226031 L24.8596731,4.00226031 C29.0219108,4.00226031 31.5846368,4.4373705 33.1753807,5.4183462 L33.1753807,5.4183462 C34.4016313,6.17781126 35.1606792,7.68656998 35.1606792,9.3580712 L35.1606792,9.3580712 C35.1606792,11.3245432 33.9156403,12.8954605 31.7311857,13.6990017 L31.7311857,13.6990017 C33.1841486,14.4358636 34.1085336,15.8542098 34.1085336,17.387832 L34.1085336,17.387832 C34.1085336,18.8084385 33.6538564,19.7928047 32.6330247,20.5748729 L32.6330247,20.5748729 C30.9182779,21.891505 27.7743668,22 24.4312995,22 L24.4312995,22 L13.0969361,22 L13.0969361,22 Z M18.9689104,18.594839 L24.188304,18.594839 C26.2976053,18.594839 27.0002883,18.4501789 27.6040194,17.9020531 L27.6040194,17.9020531 C27.9134003,17.619514 28.0975258,17.1233754 28.0975258,16.5718591 L28.0975258,16.5718591 C28.0975258,15.8101337 27.7580836,15.1546431 27.1380692,14.7229233 L27.1380692,14.7229233 L18.784785,14.7229233 C18.8048258,16.0689395 18.8649484,17.3211528 18.9689104,18.594839 L18.9689104,18.594839 Z M18.7797747,11.4624223 L26.2925951,11.4624223 C27.3798122,11.4624223 27.9334412,11.3290639 28.4206848,10.9549821 L28.4206848,10.9549821 C28.8766145,10.6035035 29.0882962,10.1683933 29.0882962,9.57845169 L29.0882962,9.57845169 C29.0882962,8.95912601 28.8891401,8.47654926 28.4808074,8.1103786 L28.4808074,8.1103786 C27.8958645,7.61537013 27.0716839,7.40403089 25.632499,7.40403089 L25.632499,7.40403089 L18.9689104,7.40403089 C18.8373922,8.83593897 18.7860375,10.2791486 18.7797747,11.4624223 L18.7797747,11.4624223 Z M92.602817,21.9988698 C92.2871733,19.4232435 92.108058,16.0282539 92.1155734,12.847994 L92.1155734,12.847994 C92.1230887,9.79996233 92.257112,6.86833679 92.602817,4.00226031 L92.602817,4.00226031 L97.913647,4.00226031 C98.27313,6.85364475 98.3908701,9.79318139 98.399638,12.8491241 L98.399638,12.8491241 C98.4096585,16.0226031 98.2079972,19.4469768 97.9186572,21.9988698 L97.9186572,21.9988698 L92.602817,21.9988698 L92.602817,21.9988698 Z M0.486219952,21.9988698 C0.170576282,19.4232435 -0.00728642099,16.0282539 0.000228904497,12.847994 L0.000228904497,12.847994 C0.00774422998,9.79996233 0.14051498,6.86833679 0.486219952,4.00226031 L0.486219952,4.00226031 L5.80080762,4.00226031 C6.15778558,6.85364475 6.27552568,9.79318139 6.28554612,12.8491241 L6.28554612,12.8491241 C6.294314,16.0226031 6.09390532,19.4469768 5.80331273,21.9988698 L5.80331273,21.9988698 L0.486219952,21.9988698 L0.486219952,21.9988698 Z" id="path70" fill="#FFFFFF" transform="translate(64.000000, 13.000000) scale(1, -1) translate(-64.000000, -13.000000) "></path>
                            <path d="M137.287882,20.8482207 L128,11.001303 L128,11 C160.24025,11 167.841005,18.9614486 172.275916,29.798661 L172.275916,29.798661 L176,40 C165.13788,39.6716391 148.746698,32.9467559 137.287882,20.8482207" id="path92" fill="url(#linearGradient-1)" transform="translate(152.000000, 25.500000) scale(1, -1) translate(-152.000000, -25.500000) "></path>
                            <path d="M160.447964,9.56993007 L151,0 C159.970182,6.44313234 168.91569,10.3303206 177.827552,11.334081 L177.827552,11.334081 L180,17 C166.80717,17 165.010442,14.1154506 160.447964,9.56993007" id="path114" fill="#FFFFFF" transform="translate(165.500000, 8.500000) scale(1, -1) translate(-165.500000, -8.500000) "></path>
                        </g>
                    </g>
                </g>
            </g>
        </g>
    </g>
</svg>